<?xml version="1.0" encoding="iso-8859-1"?>
<!-- Generator: Adobe Illustrator 19.1.0, SVG Export Plug-In . SVG Version: 6.00 Build 0)  -->
<svg version="1.1" id="Layer_1" xmlns="http://www.w3.org/2000/svg" xmlns:xlink="http://www.w3.org/1999/xlink" x="0px" y="0px"
    viewBox="0 0 249.909 41.542" style="enable-background:new 0 0 249.909 41.542;" xml:space="preserve">
<path style="fill:#231F20;" d="M216.821,9.288c-1.498-2.597-3.295-4.095-6.49-4.095c-3.346,0-6.242,2.398-6.242,5.843
   c0,3.245,3.344,4.743,5.891,5.891l2.498,1.099c4.893,2.147,9.037,4.594,9.037,10.585c0,6.592-5.293,11.635-11.832,11.635
   c-6.043,0-10.537-3.895-11.736-9.738l4.096-1.148c0.549,3.846,3.494,6.992,7.539,6.992c4.045,0,7.738-3.096,7.738-7.34
   c0-4.393-3.443-5.893-6.939-7.49l-2.297-1c-4.395-1.998-8.188-4.244-8.188-9.637c0-5.842,4.943-9.585,10.535-9.585
   c4.193,0,7.738,2.147,9.736,5.842L216.821,9.288z"/>
<path style="fill:#231F20;" d="M245.215,9.288c-1.498-2.597-3.295-4.095-6.49-4.095c-3.346,0-6.242,2.398-6.242,5.843
   c0,3.245,3.346,4.743,5.891,5.891l2.498,1.099c4.893,2.147,9.037,4.594,9.037,10.585c0,6.592-5.293,11.635-11.832,11.635
   c-6.043,0-10.537-3.895-11.736-9.738l4.096-1.148c0.549,3.846,3.496,6.992,7.539,6.992c4.045,0,7.74-3.096,7.74-7.34
   c0-4.393-3.445-5.893-6.941-7.49l-2.295-1c-4.396-1.998-8.189-4.244-8.189-9.637c0-5.842,4.943-9.585,10.535-9.585
   c4.193,0,7.738,2.147,9.736,5.842L245.215,9.288z"/>
<path style="fill:#231F20;" d="M174.551,1.948h19.523v3.894h-15.328v11.185h14.879v3.895h-14.879v14.779h15.328v3.894h-19.523V1.948
   z"/>
<path style="fill:#231F20;" d="M0,0.349l29.361,30.758V1.948h4.193v39.345L4.195,10.586v29.009H0V0.349z"/>
<path style="fill:#231F20;" d="M92.219,30.158L104.402,0l12.182,30.158l9.888-28.209h4.542l-14.43,39.594l-12.182-30.308
   L92.219,41.542L77.788,1.948h4.544L92.219,30.158z"/>
<path style="fill:#231F20;" d="M77.752,20.823c0,10.834-8.889,19.423-19.623,19.423c-10.736,0-19.623-8.589-19.623-19.423
   c0-10.785,8.887-19.523,19.623-19.523C68.864,1.299,77.752,10.038,77.752,20.823z M42.7,20.771c0,8.489,6.89,15.58,15.43,15.58
   c8.538,0,15.428-7.091,15.428-15.58c0-8.538-6.791-15.578-15.428-15.578C49.49,5.193,42.7,12.233,42.7,20.771z"/>
<path style="fill:#231F20;" d="M135.149,0.349l29.359,30.758V1.948h4.193v39.345l-29.359-30.708v29.009h-4.193V0.349z"/>
</svg>
